<svg xmlns="http://www.w3.org/2000/svg" width="754" height="728" fill="none" viewBox="0 0 754 728">
  <path fill="#393939" d="M509.952 391.616c30.539 0 55.296-24.757 55.296-55.296 0-30.539-24.757-55.296-55.296-55.296-30.539 0-55.296 24.757-55.296 55.296 0 30.539 24.757 55.296 55.296 55.296Z"/>
  <path fill="#92C0FA" d="M245.76 391.616c30.539 0 55.296-24.757 55.296-55.296 0-30.539-24.757-55.296-55.296-55.296-30.539 0-55.296 24.757-55.296 55.296 0 30.539 24.757 55.296 55.296 55.296Z"/>
  <path fill="#99E6D8" d="M387.072 641.984c30.539 0 55.296-24.757 55.296-55.296 0-30.539-24.757-55.296-55.296-55.296-30.539 0-55.296 24.757-55.296 55.296 0 30.539 24.757 55.296 55.296 55.296Zm178.176-485.376a110.588 110.588 0 0 1-68.27 102.174 110.59 110.59 0 0 1-42.322 8.418V156.608h110.592Z"/>
  <path fill="#92C0FA" d="M454.656 267.2a110.59 110.59 0 0 1-110.592-110.592h110.592V267.2Z"/>
  <path fill="#1A7AE0" d="M313.344 156.608A110.591 110.591 0 0 1 202.752 267.2V156.608h110.592Z"/>
  <path fill="#31F0A4" d="M454.656 281.024a110.588 110.588 0 0 1-68.27 102.174 110.61 110.61 0 0 1-42.322 8.418V281.024h110.592Z"/>
  <path fill="#92C0FA" d="M565.248 641.984a110.588 110.588 0 0 1-102.174-68.27 110.61 110.61 0 0 1-8.418-42.322h110.592v110.592Z"/>
  <path fill="#31F0A4" d="M205.824 531.392a110.588 110.588 0 0 1 68.27-102.174 110.61 110.61 0 0 1 42.322-8.418v110.592H205.824Z"/>
  <path fill="#393939" d="M316.416 641.984a110.588 110.588 0 0 1-102.174-68.27 110.61 110.61 0 0 1-8.418-42.322h110.592v110.592Z"/>
  <path fill="#1A7AE0" d="M565.248 408.512a110.588 110.588 0 0 1-68.27 102.174 110.61 110.61 0 0 1-84.644 0 110.588 110.588 0 0 1-59.852-59.852 110.61 110.61 0 0 1-8.418-42.322h221.184Z"/>
</svg>
