<svg xmlns="http://www.w3.org/2000/svg" width="768" height="690" fill="none" viewBox="0 0 768 690">
  <path fill="#393939" d="M509.952 353.616c30.539 0 55.296-24.757 55.296-55.296 0-30.539-24.757-55.296-55.296-55.296-30.539 0-55.296 24.757-55.296 55.296 0 30.539 24.757 55.296 55.296 55.296Z"/>
  <path fill="#D3D3D3" d="M245.76 353.616c30.539 0 55.296-24.757 55.296-55.296 0-30.539-24.757-55.296-55.296-55.296-30.539 0-55.296 24.757-55.296 55.296 0 30.539 24.757 55.296 55.296 55.296Z"/>
  <path fill="#B5B5B5" d="M387.072 603.984c30.539 0 55.296-24.757 55.296-55.296 0-30.539-24.757-55.296-55.296-55.296-30.539 0-55.296 24.757-55.296 55.296 0 30.539 24.757 55.296 55.296 55.296Z"/>
  <path fill="#818181" d="M565.248 118.608a110.588 110.588 0 0 1-68.27 102.174 110.59 110.59 0 0 1-42.322 8.418V118.608h110.592Z"/>
  <path fill="#D3D3D3" d="M454.656 229.2a110.59 110.59 0 0 1-110.592-110.592h110.592V229.2Z"/>
  <path fill="#B5B5B5" d="M313.344 118.608A110.591 110.591 0 0 1 202.752 229.2V118.608h110.592Z"/>
  <path fill="#818181" d="M454.656 243.024a110.588 110.588 0 0 1-68.27 102.174 110.59 110.59 0 0 1-42.322 8.418V243.024h110.592Z"/>
  <path fill="#D3D3D3" d="M565.248 603.984a110.59 110.59 0 0 1-110.592-110.592h110.592v110.592Z"/>
  <path fill="#818181" d="M205.824 493.392a110.588 110.588 0 0 1 68.27-102.174 110.61 110.61 0 0 1 42.322-8.418v110.592H205.824Z"/>
  <path fill="#393939" d="M316.416 603.984a110.59 110.59 0 0 1-110.592-110.592h110.592v110.592Z"/>
  <path fill="#B5B5B5" d="M565.248 370.512a110.588 110.588 0 0 1-68.27 102.174 110.61 110.61 0 0 1-84.644 0 110.588 110.588 0 0 1-59.852-59.852 110.61 110.61 0 0 1-8.418-42.322h221.184Z"/>
</svg>
