<svg xmlns="http://www.w3.org/2000/svg" width="60" height="60" fill="none" viewBox="0 0 60 60">
  <g clip-path="url(#a)">
    <path fill="#92C0FA" d="M150.609 105c-4.68-4.758-4.798-9.34-4.896-13.745-.098-4.23-.215-8.224-4.348-12.433-4.132-4.21-8.128-4.386-12.358-4.563-4.426-.195-8.99-.391-13.671-5.15-4.68-4.757-4.798-9.339-4.896-13.744-.098-4.23-.215-8.224-4.348-12.434-4.132-4.21-8.128-4.386-12.358-4.562-4.426-.196-8.99-.391-13.67-5.15-4.681-4.757-4.799-9.339-4.897-13.745-.098-4.229-.215-8.223-4.348-12.433-4.132-4.21-8.128-4.386-12.358-4.562-4.426-.196-8.99-.392-13.67-5.15-4.682-4.757-4.8-9.34-4.897-13.745-.098-4.229-.215-8.223-4.348-12.433-4.132-4.21-8.128-4.386-12.358-4.562-4.426-.196-8.99-.392-13.67-5.15-4.682-4.758-4.8-9.34-4.897-13.745-.098-4.23-.215-8.224-4.348-12.433-4.132-4.21-8.128-4.386-12.358-4.562-4.427-.196-8.99-.392-13.67-5.15-4.682-4.758-4.8-9.34-4.897-13.745-.098-4.23-.215-8.224-4.348-12.433l1.39-1.371c4.681 4.758 4.799 9.34 4.897 13.745.098 4.23.215 8.224 4.348 12.433 4.132 4.21 8.128 4.386 12.358 4.563 4.426.195 8.99.391 13.67 5.15 4.681 4.757 4.799 9.339 4.897 13.744.098 4.23.215 8.224 4.348 12.434 4.132 4.21 8.128 4.386 12.358 4.562 4.426.196 8.99.391 13.67 5.15 4.681 4.757 4.799 9.339 4.897 13.745.098 4.229.215 8.223 4.348 12.433C50.313.169 54.309.345 58.539.52c4.426.196 8.99.392 13.67 5.15 4.681 4.757 4.8 9.34 4.897 13.745.098 4.229.215 8.223 4.348 12.433 4.132 4.21 8.128 4.386 12.358 4.562 4.427.196 8.99.392 13.671 5.15 4.681 4.758 4.798 9.34 4.896 13.745.098 4.23.215 8.224 4.348 12.433 4.132 4.21 8.128 4.386 12.358 4.562 4.427.196 8.99.392 13.671 5.15 4.681 4.758 4.798 9.34 4.896 13.745.098 4.23.216 8.224 4.348 12.433L150.609 105Z"/>
    <path fill="#1A7AE0" d="M147.609 112c-4.68-4.758-4.798-9.34-4.896-13.745-.098-4.23-.215-8.224-4.348-12.433-4.132-4.21-8.128-4.386-12.358-4.563-4.426-.195-8.99-.391-13.671-5.15-4.68-4.757-4.798-9.339-4.896-13.744-.098-4.23-.215-8.224-4.348-12.434-4.132-4.21-8.128-4.386-12.358-4.562-4.426-.196-8.99-.391-13.67-5.15-4.681-4.757-4.799-9.339-4.897-13.745-.098-4.229-.215-8.223-4.348-12.433-4.132-4.21-8.128-4.386-12.358-4.562-4.426-.196-8.99-.392-13.67-5.15-4.682-4.757-4.8-9.34-4.897-13.745-.098-4.229-.215-8.223-4.348-12.433-4.132-4.21-8.128-4.386-12.358-4.562-4.426-.196-8.99-.392-13.67-5.15-4.682-4.758-4.8-9.34-4.897-13.745-.098-4.23-.215-8.224-4.348-12.433-4.132-4.21-8.128-4.386-12.358-4.562-4.427-.196-8.99-.392-13.67-5.15-4.682-4.758-4.8-9.34-4.897-13.745-.098-4.23-.215-8.224-4.348-12.433L-36.61-95c4.681 4.758 4.799 9.34 4.897 13.745.098 4.23.215 8.224 4.348 12.433 4.132 4.21 8.128 4.386 12.358 4.563 4.426.195 8.99.391 13.67 5.15 4.681 4.757 4.799 9.339 4.897 13.744.098 4.23.215 8.224 4.348 12.434 4.132 4.21 8.128 4.386 12.358 4.562 4.426.196 8.99.391 13.67 5.15 4.681 4.757 4.799 9.339 4.897 13.745.098 4.229.215 8.223 4.348 12.433 4.132 4.21 8.128 4.386 12.358 4.562 4.426.196 8.99.392 13.67 5.15 4.681 4.758 4.8 9.34 4.897 13.745.098 4.229.215 8.223 4.348 12.433 4.132 4.21 8.128 4.386 12.358 4.562 4.427.196 8.99.392 13.671 5.15 4.681 4.758 4.798 9.34 4.896 13.745.098 4.23.215 8.224 4.348 12.433 4.132 4.21 8.128 4.386 12.358 4.562 4.427.196 8.99.392 13.671 5.15 4.681 4.758 4.798 9.34 4.896 13.745.098 4.229.216 8.224 4.348 12.433L147.609 112Z"/>
    <path fill="#92C0FA" d="M138.617 119c-4.656-4.758-4.773-9.34-4.87-13.745-.098-4.229-.215-8.224-4.325-12.433-4.11-4.21-8.084-4.386-12.292-4.563-4.403-.195-8.942-.391-13.598-5.15-4.655-4.757-4.772-9.339-4.87-13.744-.097-4.23-.214-8.224-4.324-12.434-4.11-4.21-8.085-4.386-12.293-4.562-4.402-.196-8.941-.391-13.597-5.15-4.656-4.757-4.773-9.339-4.87-13.745-.098-4.229-.214-8.223-4.325-12.433-4.11-4.21-8.084-4.386-12.292-4.562-4.403-.196-8.941-.392-13.597-5.15-4.656-4.757-4.773-9.34-4.87-13.745-.098-4.229-.215-8.223-4.325-12.433-4.11-4.21-8.085-4.386-12.292-4.562-4.403-.196-8.942-.392-13.598-5.15-4.656-4.758-4.773-9.34-4.87-13.745-.097-4.23-.214-8.224-4.325-12.433-4.11-4.21-8.084-4.386-12.292-4.562-4.402-.196-8.941-.392-13.597-5.15-4.656-4.758-4.773-9.34-4.87-13.745-.098-4.23-.215-8.224-4.325-12.433L-44.617-88c4.656 4.758 4.773 9.34 4.87 13.745.098 4.23.215 8.224 4.325 12.433 4.11 4.21 8.084 4.386 12.292 4.563 4.403.195 8.942.391 13.598 5.15 4.655 4.757 4.772 9.339 4.87 13.744.097 4.23.214 8.224 4.324 12.434 4.11 4.21 8.085 4.386 12.292 4.562 4.403.196 8.942.391 13.598 5.15 4.656 4.757 4.773 9.339 4.87 13.745.098 4.229.214 8.223 4.325 12.433 4.11 4.21 8.084 4.386 12.292 4.562 4.403.196 8.941.392 13.597 5.15 4.656 4.758 4.773 9.34 4.87 13.745.098 4.229.215 8.223 4.325 12.433 4.11 4.21 8.085 4.386 12.292 4.562 4.403.196 8.942.392 13.598 5.15 4.656 4.758 4.773 9.34 4.87 13.745.097 4.23.214 8.224 4.325 12.433 4.11 4.21 8.084 4.386 12.292 4.562 4.402.196 8.941.392 13.597 5.15 4.656 4.758 4.773 9.34 4.87 13.745.098 4.229.215 8.224 4.325 12.433L138.617 119Z"/>
    <path fill="#1A7AE0" d="M133.609 126c-4.68-4.758-4.798-9.34-4.896-13.745-.098-4.229-.215-8.224-4.348-12.433-4.132-4.21-8.128-4.386-12.358-4.563-4.426-.195-8.99-.391-13.67-5.15-4.681-4.757-4.799-9.339-4.897-13.744-.098-4.23-.215-8.224-4.348-12.434-4.132-4.21-8.128-4.386-12.358-4.562-4.426-.196-8.99-.391-13.67-5.15-4.681-4.757-4.799-9.339-4.897-13.745-.098-4.229-.215-8.223-4.348-12.433-4.132-4.21-8.128-4.386-12.358-4.562-4.426-.196-8.99-.392-13.67-5.15-4.682-4.758-4.8-9.34-4.897-13.745-.098-4.229-.215-8.223-4.348-12.433-4.132-4.21-8.128-4.386-12.358-4.562-4.426-.196-8.99-.392-13.67-5.15-4.682-4.758-4.8-9.34-4.897-13.745-.098-4.23-.216-8.223-4.348-12.433-4.132-4.21-8.128-4.386-12.358-4.562-4.426-.196-8.99-.392-13.67-5.15-4.682-4.758-4.8-9.34-4.897-13.745-.098-4.23-.215-8.224-4.348-12.433L-50.61-81c4.681 4.758 4.799 9.34 4.897 13.745.098 4.23.215 8.224 4.348 12.433 4.132 4.21 8.128 4.386 12.358 4.563 4.426.195 8.99.391 13.67 5.15 4.681 4.757 4.799 9.339 4.897 13.744.098 4.23.215 8.224 4.348 12.434 4.132 4.21 8.128 4.386 12.358 4.562 4.426.196 8.99.391 13.67 5.15 4.682 4.756 4.8 9.339 4.898 13.744.098 4.229.215 8.223 4.348 12.433 4.132 4.21 8.128 4.386 12.358 4.562 4.426.196 8.99.392 13.67 5.15 4.681 4.758 4.8 9.34 4.897 13.745.098 4.229.215 8.223 4.348 12.433 4.132 4.21 8.128 4.386 12.358 4.562 4.427.196 8.99.392 13.67 5.15 4.682 4.758 4.8 9.34 4.897 13.745.098 4.23.215 8.224 4.348 12.433 4.132 4.21 8.128 4.386 12.358 4.562 4.427.196 8.99.392 13.671 5.15 4.681 4.758 4.798 9.34 4.896 13.745.098 4.229.216 8.224 4.348 12.433L133.609 126Z"/>
    <path fill="#92C0FA" d="M127.609 133c-4.68-4.758-4.798-9.34-4.896-13.745-.098-4.229-.215-8.224-4.348-12.434-4.132-4.209-8.128-4.385-12.358-4.562-4.426-.195-8.99-.391-13.67-5.15-4.681-4.757-4.799-9.339-4.897-13.744-.098-4.23-.215-8.224-4.348-12.434-4.132-4.21-8.128-4.386-12.358-4.562-4.426-.196-8.99-.391-13.67-5.15-4.681-4.757-4.799-9.339-4.897-13.745-.098-4.229-.215-8.223-4.348-12.433-4.132-4.21-8.128-4.386-12.358-4.562-4.426-.196-8.99-.392-13.67-5.15-4.682-4.758-4.8-9.34-4.897-13.745-.098-4.229-.215-8.223-4.348-12.433C8.414-5.059 4.418-5.235.188-5.411c-4.426-.196-8.99-.392-13.67-5.15-4.682-4.758-4.8-9.34-4.897-13.745-.098-4.23-.215-8.223-4.348-12.433-4.132-4.21-8.128-4.386-12.358-4.562-4.426-.196-8.99-.392-13.67-5.15-4.682-4.758-4.8-9.34-4.897-13.745-.098-4.23-.215-8.224-4.348-12.433L-56.61-74c4.681 4.758 4.799 9.34 4.897 13.745.098 4.23.215 8.224 4.348 12.434 4.132 4.21 8.128 4.385 12.358 4.562 4.426.195 8.99.391 13.67 5.15 4.681 4.757 4.799 9.339 4.897 13.744.098 4.23.215 8.224 4.348 12.434C-7.96-7.721-3.964-7.545.266-7.37c4.426.196 8.99.391 13.67 5.15 4.681 4.757 4.799 9.339 4.897 13.744.098 4.23.215 8.224 4.348 12.434 4.132 4.21 8.128 4.386 12.358 4.562 4.426.196 8.99.392 13.67 5.15 4.681 4.758 4.8 9.34 4.897 13.745.098 4.229.215 8.223 4.348 12.433 4.132 4.21 8.128 4.386 12.358 4.562 4.427.196 8.99.392 13.67 5.15 4.682 4.758 4.8 9.34 4.897 13.745.098 4.23.215 8.224 4.348 12.433 4.132 4.21 8.128 4.386 12.358 4.562 4.427.196 8.99.392 13.671 5.15 4.681 4.758 4.798 9.34 4.896 13.745.098 4.229.216 8.224 4.348 12.433L127.609 133Z"/>
    <path fill="#1A7AE0" d="M121.617 139c-4.656-4.735-4.773-9.295-4.87-13.679-.098-4.209-.215-8.184-4.325-12.373s-8.084-4.365-12.292-4.54c-4.403-.195-8.942-.39-13.597-5.125-4.656-4.735-4.773-9.294-4.87-13.679-.098-4.208-.215-8.183-4.325-12.373-4.11-4.19-8.085-4.365-12.292-4.54-4.403-.195-8.942-.39-13.598-5.125-4.656-4.735-4.773-9.294-4.87-13.678-.098-4.21-.214-8.184-4.325-12.374-4.11-4.189-8.084-4.364-12.292-4.54-4.403-.195-8.941-.39-13.597-5.124-4.656-4.735-4.773-9.295-4.87-13.68-.098-4.208-.215-8.183-4.325-12.372-4.11-4.19-8.085-4.365-12.292-4.54-4.403-.195-8.942-.39-13.598-5.125-4.656-4.735-4.773-9.295-4.87-13.679-.097-4.209-.214-8.184-4.325-12.373-4.11-4.19-8.084-4.365-12.292-4.54-4.402-.195-8.941-.39-13.597-5.125-4.656-4.735-4.773-9.294-4.87-13.679-.098-4.209-.215-8.184-4.325-12.373L-61.617-67c4.656 4.735 4.773 9.295 4.87 13.679.098 4.209.215 8.184 4.325 12.373 4.11 4.19 8.084 4.365 12.292 4.54 4.403.195 8.942.39 13.598 5.125 4.655 4.735 4.772 9.294 4.87 13.679.097 4.208.214 8.183 4.324 12.373 4.11 4.19 8.085 4.365 12.293 4.54 4.402.195 8.941.39 13.597 5.125 4.656 4.735 4.773 9.294 4.87 13.678.098 4.21.214 8.184 4.325 12.374 4.11 4.189 8.084 4.364 12.292 4.54 4.403.195 8.941.39 13.597 5.124 4.656 4.735 4.773 9.295 4.87 13.68.098 4.208.215 8.183 4.325 12.372 4.11 4.19 8.085 4.365 12.292 4.54 4.403.195 8.942.39 13.598 5.125 4.656 4.735 4.772 9.295 4.87 13.679.097 4.209.214 8.184 4.325 12.373 4.11 4.19 8.084 4.365 12.292 4.54 4.402.195 8.941.39 13.597 5.125 4.656 4.735 4.773 9.295 4.87 13.679.098 4.209.215 8.184 4.325 12.373L121.617 139Z"/>
    <path fill="#92C0FA" d="M115.617 146c-4.656-4.758-4.773-9.34-4.87-13.745-.098-4.229-.215-8.224-4.325-12.433-4.11-4.21-8.084-4.386-12.292-4.563-4.403-.195-8.942-.391-13.597-5.149-4.656-4.758-4.773-9.34-4.87-13.745-.098-4.23-.215-8.224-4.325-12.434-4.11-4.21-8.085-4.386-12.292-4.562-4.403-.196-8.942-.391-13.598-5.15-4.656-4.757-4.773-9.339-4.87-13.744-.098-4.23-.214-8.224-4.325-12.434-4.11-4.21-8.084-4.386-12.292-4.562-4.403-.196-8.941-.392-13.597-5.15-4.656-4.758-4.773-9.34-4.87-13.745-.098-4.229-.215-8.223-4.325-12.433-4.11-4.21-8.085-4.386-12.292-4.562-4.403-.196-8.942-.392-13.598-5.15-4.656-4.758-4.773-9.34-4.87-13.745-.097-4.23-.214-8.223-4.325-12.433-4.11-4.21-8.084-4.386-12.292-4.562-4.402-.196-8.941-.392-13.597-5.15-4.656-4.758-4.773-9.34-4.87-13.745-.098-4.23-.215-8.224-4.325-12.433L-67.617-61c4.656 4.758 4.773 9.34 4.87 13.745.098 4.23.215 8.224 4.325 12.434 4.11 4.21 8.084 4.385 12.292 4.562 4.403.195 8.942.391 13.598 5.15 4.655 4.757 4.772 9.339 4.87 13.744.097 4.23.214 8.224 4.324 12.434 4.11 4.21 8.085 4.386 12.293 4.562 4.402.196 8.941.391 13.597 5.15 4.656 4.757 4.773 9.339 4.87 13.745.097 4.229.214 8.223 4.325 12.433 4.11 4.21 8.084 4.386 12.292 4.562 4.403.196 8.941.392 13.597 5.15 4.656 4.758 4.773 9.34 4.87 13.745.098 4.229.215 8.223 4.325 12.433 4.11 4.21 8.085 4.386 12.292 4.562 4.403.196 8.942.392 13.598 5.15 4.656 4.758 4.772 9.34 4.87 13.745.097 4.229.214 8.224 4.325 12.433 4.11 4.21 8.084 4.386 12.292 4.562 4.402.196 8.941.392 13.597 5.15 4.656 4.758 4.773 9.34 4.87 13.745.098 4.229.215 8.224 4.325 12.433L115.617 146Z"/>
    <path fill="#1A7AE0" d="M110.609 153c-4.68-4.758-4.798-9.34-4.896-13.745-.098-4.229-.215-8.224-4.348-12.434-4.132-4.209-8.128-4.385-12.358-4.562-4.426-.195-8.99-.391-13.67-5.149-4.681-4.758-4.799-9.34-4.897-13.745-.098-4.23-.215-8.224-4.348-12.434-4.132-4.21-8.128-4.386-12.358-4.562-4.426-.196-8.99-.391-13.67-5.15-4.681-4.757-4.799-9.339-4.897-13.745-.098-4.229-.215-8.223-4.348-12.433-4.132-4.21-8.128-4.386-12.358-4.562-4.426-.196-8.99-.392-13.67-5.15-4.682-4.758-4.8-9.34-4.897-13.745-.098-4.229-.215-8.223-4.348-12.433-4.132-4.21-8.128-4.386-12.358-4.562-4.426-.196-8.99-.392-13.67-5.15-4.682-4.758-4.8-9.34-4.897-13.745-.098-4.23-.215-8.224-4.348-12.433-4.132-4.21-8.128-4.386-12.358-4.562-4.426-.196-8.99-.392-13.67-5.15-4.682-4.758-4.8-9.34-4.897-13.745-.098-4.23-.216-8.224-4.348-12.433L-73.61-54c4.681 4.758 4.799 9.34 4.897 13.745.098 4.23.215 8.224 4.348 12.434 4.132 4.21 8.128 4.385 12.358 4.562 4.426.195 8.99.391 13.67 5.15 4.681 4.757 4.799 9.339 4.897 13.744.098 4.23.215 8.224 4.348 12.434 4.132 4.21 8.128 4.386 12.358 4.562 4.426.196 8.99.391 13.67 5.15 4.682 4.757 4.799 9.339 4.897 13.745.098 4.229.215 8.223 4.348 12.433 4.132 4.21 8.128 4.386 12.358 4.562 4.426.196 8.99.392 13.67 5.15 4.681 4.758 4.8 9.34 4.897 13.745.098 4.229.215 8.223 4.348 12.433 4.132 4.21 8.128 4.386 12.358 4.562 4.427.196 8.99.392 13.67 5.15 4.682 4.758 4.8 9.34 4.897 13.745.098 4.229.215 8.223 4.348 12.433 4.132 4.21 8.128 4.386 12.358 4.562 4.427.196 8.99.392 13.671 5.15 4.681 4.758 4.798 9.34 4.896 13.745.098 4.229.216 8.224 4.348 12.433L110.609 153Z"/>
    <path fill="#92C0FA" d="M104.609 160c-4.68-4.758-4.798-9.34-4.896-13.745-.098-4.229-.215-8.224-4.348-12.433-4.132-4.21-8.128-4.386-12.358-4.563-4.426-.195-8.99-.391-13.67-5.149-4.681-4.758-4.799-9.34-4.897-13.745-.098-4.23-.215-8.224-4.348-12.434-4.132-4.21-8.128-4.386-12.358-4.562-4.426-.196-8.99-.391-13.67-5.15-4.681-4.757-4.799-9.339-4.897-13.744-.098-4.23-.215-8.224-4.348-12.434-4.132-4.21-8.128-4.386-12.358-4.562-4.426-.196-8.99-.392-13.67-5.15-4.682-4.758-4.8-9.34-4.897-13.745-.098-4.229-.215-8.223-4.348-12.433-4.132-4.21-8.128-4.386-12.358-4.562-4.426-.196-8.99-.392-13.67-5.15-4.682-4.758-4.8-9.34-4.897-13.745-.098-4.23-.215-8.224-4.348-12.433-4.132-4.21-8.128-4.386-12.358-4.562-4.426-.196-8.99-.392-13.67-5.15-4.682-4.758-4.8-9.34-4.897-13.745-.098-4.23-.216-8.224-4.348-12.433L-79.61-47c4.681 4.758 4.799 9.34 4.897 13.745.098 4.23.215 8.224 4.348 12.434 4.132 4.21 8.128 4.385 12.358 4.562 4.426.195 8.99.391 13.67 5.15 4.681 4.757 4.799 9.339 4.897 13.744.098 4.23.215 8.224 4.348 12.434 4.132 4.21 8.128 4.386 12.358 4.562 4.426.196 8.99.391 13.67 5.15 4.682 4.757 4.799 9.339 4.897 13.745.098 4.229.215 8.223 4.348 12.433 4.132 4.21 8.128 4.386 12.358 4.562 4.426.196 8.99.392 13.67 5.15 4.681 4.758 4.8 9.34 4.897 13.745.098 4.229.215 8.223 4.348 12.433 4.132 4.21 8.128 4.386 12.358 4.562 4.427.196 8.99.392 13.67 5.15 4.682 4.758 4.8 9.339 4.897 13.745.098 4.229.215 8.224 4.348 12.433 4.132 4.21 8.128 4.386 12.358 4.562 4.427.196 8.99.392 13.67 5.15 4.682 4.758 4.799 9.34 4.897 13.745.098 4.229.216 8.224 4.348 12.433L104.609 160Z"/>
    <path fill="#9F1717" d="M98.617 166c-4.656-4.735-4.773-9.295-4.87-13.679-.098-4.209-.215-8.184-4.325-12.373s-8.084-4.365-12.292-4.54c-4.403-.195-8.942-.39-13.597-5.125-4.656-4.735-4.773-9.294-4.87-13.679-.098-4.208-.215-8.183-4.325-12.373-4.11-4.189-8.085-4.365-12.293-4.54-4.402-.195-8.941-.39-13.597-5.125-4.656-4.734-4.773-9.294-4.87-13.678-.098-4.21-.214-8.184-4.325-12.374-4.11-4.189-8.084-4.364-12.292-4.54-4.403-.195-8.942-.39-13.597-5.124-4.656-4.735-4.773-9.295-4.87-13.68-.098-4.208-.215-8.183-4.325-12.372-4.11-4.19-8.085-4.365-12.292-4.54-4.403-.195-8.942-.39-13.598-5.125-4.656-4.735-4.773-9.295-4.87-13.679-.097-4.209-.214-8.184-4.325-12.373-4.11-4.19-8.084-4.365-12.292-4.54-4.402-.195-8.941-.39-13.597-5.125-4.656-4.735-4.773-9.294-4.87-13.679-.098-4.209-.215-8.184-4.325-12.373L-84.617-40c4.656 4.735 4.773 9.295 4.87 13.679.098 4.209.215 8.184 4.325 12.373 4.11 4.19 8.084 4.365 12.292 4.54 4.403.195 8.942.39 13.598 5.125 4.655 4.735 4.772 9.294 4.87 13.679.097 4.208.214 8.183 4.324 12.373 4.11 4.19 8.085 4.365 12.293 4.54 4.402.195 8.941.39 13.597 5.125 4.656 4.735 4.773 9.294 4.87 13.678.097 4.21.214 8.184 4.325 12.374 4.11 4.189 8.084 4.364 12.292 4.54 4.403.195 8.942.39 13.597 5.124 4.656 4.735 4.773 9.295 4.87 13.68.098 4.208.215 8.183 4.325 12.372 4.11 4.19 8.085 4.365 12.292 4.54 4.403.195 8.942.39 13.598 5.125 4.656 4.735 4.773 9.295 4.87 13.679.097 4.209.214 8.184 4.325 12.373 4.11 4.19 8.084 4.365 12.292 4.54 4.402.195 8.941.39 13.597 5.125 4.656 4.735 4.773 9.295 4.87 13.679.098 4.209.215 8.184 4.325 12.373L98.617 166Z"/>
    <path fill="#F35D5D" d="M93.61 173c-4.681-4.758-4.799-9.34-4.897-13.745-.098-4.229-.215-8.224-4.348-12.434-4.132-4.209-8.128-4.385-12.358-4.562-4.426-.195-8.99-.391-13.67-5.149-4.681-4.758-4.799-9.34-4.897-13.745-.098-4.23-.215-8.224-4.348-12.434-4.132-4.209-8.128-4.386-12.358-4.562-4.426-.196-8.99-.391-13.67-5.149-4.681-4.758-4.799-9.34-4.897-13.745-.098-4.23-.215-8.224-4.348-12.434-4.132-4.21-8.128-4.386-12.358-4.562-4.426-.196-8.99-.392-13.67-5.15-4.681-4.757-4.8-9.34-4.897-13.745-.098-4.229-.215-8.223-4.348-12.433-4.132-4.21-8.128-4.386-12.358-4.562-4.427-.196-8.99-.392-13.67-5.15-4.682-4.758-4.8-9.34-4.897-13.745-.098-4.23-.215-8.224-4.348-12.433-4.132-4.21-8.128-4.386-12.358-4.562-4.427-.196-8.99-.392-13.67-5.15-4.682-4.758-4.8-9.34-4.897-13.745-.098-4.23-.216-8.224-4.348-12.433L-90.61-34c4.681 4.758 4.799 9.34 4.897 13.745.098 4.23.215 8.224 4.348 12.433 4.132 4.21 8.128 4.386 12.358 4.563 4.426.195 8.99.391 13.67 5.15 4.681 4.757 4.799 9.339 4.897 13.744.098 4.23.215 8.224 4.348 12.434 4.132 4.21 8.128 4.386 12.358 4.562 4.426.196 8.99.391 13.67 5.15 4.681 4.757 4.799 9.339 4.897 13.745.098 4.229.215 8.223 4.348 12.433 4.132 4.21 8.128 4.386 12.358 4.562 4.426.196 8.99.392 13.67 5.15 4.682 4.757 4.8 9.34 4.897 13.745.098 4.229.215 8.223 4.348 12.433 4.132 4.21 8.128 4.386 12.358 4.562 4.427.196 8.99.392 13.67 5.15 4.682 4.758 4.8 9.339 4.897 13.745.098 4.229.215 8.224 4.348 12.433 4.132 4.21 8.128 4.386 12.358 4.562 4.427.196 8.99.392 13.67 5.15 4.682 4.758 4.8 9.34 4.897 13.745.098 4.229.216 8.224 4.348 12.433L93.61 173Z"/>
  </g>
  <defs>
    <clipPath id="a">
      <rect width="60" height="60" fill="#fff" rx="10"/>
    </clipPath>
  </defs>
</svg>
